# AST/ASF file generated using VICON BodyLanguage
# -----------------------------------------------
:version 1.10
:name VICON
:units
  mass 1.0
  length 0.45
  angle deg
:documentation
   .ast/.asf automatically generated from VICON data using
   VICON BodyBuilder and BodyLanguage model FoxedUp or BRILLIANT.MOD
:root
   order TX TY TZ RX RY RZ
   axis XYZ
   position 0 0 0  
   orientation 0 0 0 
:bonedata
  begin
     id 1 
     name lhipjoint
     direction 0.671379 -0.66392 0.329334 
     length 2.38647 
     axis 0 0 0  XYZ
  end
  begin
     id 2 
     name lfemur
     direction 0.34202 -0.939693 0  
     length 6.48179  
     axis 0 0 20  XYZ
    dof rx ry rz
    limits (-160.0 20.0)
           (-70.0 70.0)
           (-60.0 70.0)
  end
  begin
     id 3 
     name ltibia
     direction 0.34202 -0.939693 0   
     length 6.86524   
     axis 0 0 20   XYZ
    dof rx
    limits (-10.0 170.0)
  end
  begin
     id 4 
     name lfoot
     direction 0.204886 -0.562919 0.800715   
     length 1.73031   
     axis -90 7.62852e-016 20   XYZ
    dof rx rz
    limits (-45.0 90.0)
           (-70.0 20.0)
  end
  begin
     id 5 
     name ltoes
     direction 1.53548e-011 -4.21841e-011 1   
     length 0.828161   
     axis -90 7.62852e-016 20   XYZ
    dof rx
    limits (-90.0 20.0)
  end
  begin
     id 6 
     name rhipjoint
     direction -0.662732 -0.670855 0.332775   
     length 2.3618  
     axis 0 0 0  XYZ 
  end
  begin
     id 7 
     name rfemur
     direction -0.34202 -0.939693 0   
     length 6.3025   
     axis 0 0 -20   XYZ
    dof rx ry rz
    limits (-160.0 20.0)
           (-70.0 70.0)
           (-70.0 60.0)
  end
  begin
     id 8 
     name rtibia
     direction -0.34202 -0.939693 0   
     length 6.8732   
     axis 0 0 -20   XYZ
    dof rx
    limits (-10.0 170.0)
 end
 begin
     id 9 
     name rfoot
     direction -0.173856 -0.477665 0.861168   
     length 1.54784  
     axis -90 -7.62852e-016 -20   XYZ
    dof rx rz
    limits (-45.0 90.0)
           (-20.0 70.0)
  end
  begin
     id 10 
     name rtoes
     direction -1.53562e-011 -4.21802e-011 1   
     length 0.759618   
     axis -90 -7.62852e-016 -20   XYZ
    dof rx
    limits (-90.0 20.0)
  end
  begin
     id 11 
     name lowerback
     direction -0.0278357 0.999497 -0.0151789   
     length 1.97203   
     axis 0 0 0   XYZ
    dof rx ry rz
    limits (-20.0 45.0)
           (-30.0 30.0)
           (-30.0 30.0)
  end
  begin
     id 12 
     name upperback
     direction -0.00360622 0.997542 0.0699804   
     length 1.94709   
     axis 0 0 0   XYZ
    dof rx ry rz
    limits (-20.0 45.0)
           (-30.0 30.0)
           (-30.0 30.0)
  end
  begin
     id 13 
     name thorax
     direction 0.00907706 0.997048 0.0762461   
     length 1.95722   
     axis 0 0 0   XYZ
    dof rx ry rz
    limits (-20.0 45.0)
           (-30.0 30.0)
           (-30.0 30.0)
  end
  begin
     id 14 
     name lowerneck
     direction -0.0481835 0.99872 -0.0153927   
     length 1.63078   
     axis 0 0 0   XYZ
    dof rx ry rz
    limits (-20.0 45.0)
           (-30.0 30.0)
           (-30.0 30.0)
  end
  begin
     id 15 
     name upperneck
     direction 0.0859716 0.979226 -0.183644   
     length 1.62591   
     axis 0 0 0   XYZ
    dof rx ry rz
    limits (-20.0 45.0)
           (-30.0 30.0)
           (-30.0 30.0)
  end
  begin
     id 16
     name head
     direction 0.0324821 0.997629 -0.0606773  
     length 1.64811  
     axis 0 0 0   XYZ
    dof rx ry rz
    limits (-20.0 45.0)
           (-30.0 30.0)
           (-30.0 30.0)
  end
  begin
     id 17 
     name lclavicle
     direction 0.939609 0.311019 0.142835  
     length 3.70647  
     axis 0 0 0   XYZ
    dof ry rz
    limits (-20.0 10.0)
           (0.0 20.0)
  end
  begin
     id 18 
     name lhumerus
     direction 1 -4.48963e-011 -1.59838e-027   
     length 4.59207   
     axis 180 -30 -90   XYZ
    dof rx ry rz
    limits (-60.0 90.0)
           (-90.0 90.0)
           (-90.0 90.0)
  end
  begin
     id 19
     name lradius
     direction 1 -4.48957e-011 -1.3483e-026   
     length 2.98109   
     axis 180 -30 -90   XYZ
    dof rx
    limits (-10.0 170.0)
  end
  begin
     id 20
     name lwrist
     direction 1 -4.48954e-011 -3.11579e-026   
     length 1.49055   
     axis 2.00652e-014 90 90   XYZ
    dof ry
    limits (-180.0 0.0)
 end
  begin
     id 21 
     name lhand
     direction 1 -4.4911e-011 -6.23158e-026   
     length 0.480203   
     axis 3.97628e-014 90 90   XYZ
    dof rx rz
    limits (-90.0 90.0)
           (-45.0 45.0)
  end
  begin
     id 22 
     name lfingers
     direction 1 -4.48893e-011 -1.24632e-025   
     length 0.387152   
     axis 7.95256e-014 90 90   XYZ
    dof rx
    limits (0.0 90.0)
  end
  begin
     id 23
     name lthumb
     direction 0.707107 -6.35013e-011 0.707107   
     length 0.555875   
     axis -90 45 2.85299e-015   XYZ
    dof rx rz
    limits (-45.0 45.0)
           (-45.0 45.0)
  end
  begin
     id 24 
     name rclavicle
     direction -0.950396 0.30392 0.0661859   
     length 3.70894  
     axis 0 0 0   XYZ 
    dof ry rz
    limits (-10.0 20.0)
           (-20.0 0.0)
  end
  begin
     id 25 
     name rhumerus
     direction -1 -4.48957e-011 -2.96677e-027  
     length 4.76508   
     axis 180 30 90   XYZ
    dof rx ry rz
    limits (-90.0 60.0)
           (-90.0 90.0)
           (-90.0 90.0)
  end
  begin
     id 26 
     name rradius
     direction -1 -4.48974e-011 -1.44501e-026   
     length 2.78902   
     axis 180 30 90   XYZ
    dof rx
    limits (-10.0 170.0)
  end
  begin
     id 27 
     name rwrist
     direction -1 -4.48978e-011 -3.11579e-026   
     length 1.39451   
     axis 2.00652e-014 -90 -90   XYZ
    dof ry
    limits (-180.0 0.0)
  end
  begin
     id 28
     name rhand
     direction -1 -4.48956e-011 -6.23158e-026   
     length 0.721303   
     axis 3.97628e-014 -90 -90   XYZ
    dof rx rz
    limits (-90.0 90.0)
           (-45.0 45.0)
  end
  begin
     id 29
     name rfingers
     direction -1 -4.4899e-011 -1.24632e-025   
     length 0.581533   
     axis 7.95256e-014 -90 -90   XYZ
    dof rx
    limits (0.0 90.0)
  end
  begin
     id 30
     name rthumb
     direction -0.707107 -6.34911e-011 0.707107   
     length 0.834968   
     axis -90 -45 -2.85299e-015   XYZ
    dof rx rz
    limits (-45.0 45.0)
           (-45.0 45.0)
  end
:hierarchy
  begin
    root lhipjoint rhipjoint lowerback
    lhipjoint lfemur
    lfemur ltibia
    ltibia lfoot
    lfoot ltoes
    rhipjoint rfemur
    rfemur rtibia
    rtibia rfoot
    rfoot rtoes
    lowerback upperback
    upperback thorax
    thorax lowerneck lclavicle rclavicle
    lowerneck upperneck
    upperneck head
    lclavicle lhumerus
    lhumerus lradius
    lradius lwrist
    lwrist lhand lthumb
    lhand lfingers
    rclavicle rhumerus
    rhumerus rradius
    rradius rwrist
    rwrist rhand rthumb
    rhand rfingers
  end

#!OML:ASF I:\salsa\salsa 7_09\Patient 1\Session 1\dancerfemale.ASF
:FULLY-SPECIFIED
:DEGREES
222
root 15.2233 15.4323 -0.490773 -19.84 -68.9233 20.3949
lowerback 12.2375 4.21629 -0.153426
upperback -3.75862 5.30403 -2.98697
thorax -10.67 2.41773 -4.26818
lowerneck 2.96394 -9.43436 -11.4917
upperneck 4.71012 -13.2836 9.17397
head 2.29838 -6.74322 4.27903
rclavicle -1.09108e-013 2.14687e-014
rhumerus -20.0968 -16.1946 -72.3771
rradius 53.3361
rwrist 1.07495
rhand -6.9871 62.9497
rfingers 7.12502
rthumb 18.8832 33.8463
lclavicle -1.09108e-013 2.14687e-014
lhumerus -47.7345 3.89375 91.1891
lradius 70.9859
lwrist -51.2883
lhand -57.7238 19.5083
lfingers 7.12502
lthumb -29.9824 407.099
rfemur -33.3265 -9.85681 6.30817
rtibia 46.5862
rfoot -15.1412 -9.65039
rtoes 5.61102
lfemur -7.26859 -11.5378 -35.294
ltibia 37.3804
lfoot -26.8102 -2.55921
ltoes -3.10118
223
root 15.046 15.4091 -0.538544 -18.9992 -69.8769 19.589
lowerback 12.1655 3.88561 -0.36592
upperback -3.91995 4.85389 -2.70252
thorax -10.8789 2.22188 -3.75477
lowerneck 2.30236 -8.70332 -11.2932
upperneck 5.25123 -12.2495 8.97141
head 2.43297 -6.21494 4.19881
rclavicle 2.94698e-014 -2.92213e-014
rhumerus -19.707 -13.8086 -74.0962
rradius 53.8279
rwrist 0.817878
rhand -7.32799 62.8018
rfingers 7.12502
rthumb 18.5553 33.6668
lclavicle 2.94698e-014 -2.92213e-014
lhumerus -47.6444 5.18969 90.6641
lradius 68.9988
lwrist -51.9125
lhand -57.2145 18.6256
lfingers 7.12502
lthumb -29.4963 406.303
rfemur -33.0596 -8.50354 7.4986
rtibia 47.0015
rfoot -16.7892 -9.55153
rtoes 1.10324
lfemur -7.11828 -11.5576 -34.4783
ltibia 38.1893
lfoot -27.3806 -1.75175
ltoes -4.4465
224
root 14.8044 15.3966 -0.528044 -19.7849 -72.3717 19.5477
lowerback 12.0001 3.89834 0.13668
upperback -3.68445 4.99519 -2.39293
thorax -10.4938 2.28259 -3.69721
lowerneck 1.61125 -7.87868 -11.1098
upperneck 5.76793 -11.0829 8.74198
head 2.55556 -5.62153 4.12121
rclavicle 1.08959e-014 -3.97569e-015
rhumerus -19.4468 -11.2933 -76.0068
rradius 54.2809
rwrist 0.797168
rhand -7.47403 62.7078
rfingers 7.12502
rthumb 18.4149 33.5595
lclavicle 1.08959e-014 -3.97569e-015
lhumerus -47.6824 6.48415 90.0693
lradius 67.1888
lwrist -52.0525
lhand -56.7428 20.4798
lfingers 7.12502
lthumb -29.0459 408.236
rfemur -31.8165 -6.21865 8.76559
rtibia 46.8542
rfoot -17.8692 -8.32303
rtoes 2.12258
lfemur -5.54192 -11.4745 -34.21
ltibia 38.7969
lfoot -28.339 0.878148
ltoes -6.7745
225
root 14.6185 15.3838 -0.567155 -17.6135 -73.6677 17.6566
lowerback 11.697 3.3674 0.379808
upperback -3.9464 4.3595 -2.0484
thorax -10.6496 1.9716 -3.32444
lowerneck 1.07269 -6.94835 -10.9183
upperneck 6.1257 -9.78662 8.60441
head 2.60214 -4.96586 4.08773
rclavicle 5.17958e-014 -8.54774e-015
rhumerus -19.343 -8.84095 -78.1205
rradius 54.6304
rwrist 1.14985
rhand -7.33837 62.7287
rfingers 7.12502
rthumb 18.5454 33.5927
lclavicle 5.17958e-014 -8.54774e-015
lhumerus -47.8085 7.99512 89.1344
lradius 65.3558
lwrist -52.1908
lhand -56.0697 20.654
lfingers 7.12502
lthumb -28.4028 408.519
rfemur -31.5021 -5.01643 10.3208
rtibia 46.402
rfoot -18.7122 -7.94314
rtoes 3.55232
lfemur -5.54495 -12.1439 -33.2779
ltibia 39.5183
lfoot -28.465 2.61421
ltoes -8.58615
226
root 14.4009 15.3796 -0.602218 -16.3269 -75.7732 16.1662
lowerback 11.4193 3.18945 0.534789
upperback -3.92027 4.18549 -1.68525
thorax -10.481 1.89838 -2.96228
lowerneck 0.84663 -5.9809 -10.7649
upperneck 6.04704 -8.4797 8.95511
head 2.49233 -4.3013 4.22565
rclavicle 8.17626e-014 -1.40143e-014
rhumerus -19.3948 -7.00944 -80.2241
rradius 54.8552
rwrist 1.87919
rhand -7.00175 62.9538
rfingers 7.12502
rthumb 18.8691 33.849
lclavicle 8.17626e-014 -1.40143e-014
lhumerus -47.7765 9.31187 88.1722
lradius 63.3155
lwrist -52.5981
lhand -55.6001 21.6209
lfingers 7.12502
lthumb -27.954 409.56
rfemur -30.5505 -3.48273 11.997
rtibia 45.6946
rfoot -19.8233 -7.92745
rtoes 2.53298
lfemur -4.77444 -12.4774 -32.5872
ltibia 40.1875
lfoot -28.3677 5.02213
ltoes -10.8997
227
root 14.1788 15.3921 -0.637272 -15.0812 -77.8893 14.7257
lowerback 11.1583 3.12962 0.648596
upperback -3.88696 4.14829 -1.44405
thorax -10.3012 1.88803 -2.73851
lowerneck 0.203384 -5.25648 -10.4461
upperneck 6.37472 -7.49132 9.31064
head 2.59502 -3.78233 4.30445
rclavicle -4.19187e-014 3.47873e-015
rhumerus -19.8076 -5.69579 -82.2832
rradius 55.1431
rwrist 2.80986
rhand -6.50802 63.1614
rfingers 7.12502
rthumb 19.3439 34.1035
lclavicle -4.19187e-014 3.47873e-015
lhumerus -47.7125 10.2487 87.199
lradius 61.3027
lwrist -52.8528
lhand -55.1483 23.0311
lfingers 7.12502
lthumb -27.522 411.04
rfemur -29.6061 -3.00121 13.6368
rtibia 44.9894
rfoot -20.8133 -7.23937
rtoes 1.81095
lfemur -4.10113 -12.8877 -32.1253
ltibia 41.1665
lfoot -28.0513 7.5107
ltoes -14.1767
228
root 13.9546 15.4196 -0.673767 -13.8064 -80.0466 13.3279
lowerback 10.9363 3.09566 0.720321
upperback -3.90321 4.13002 -1.27649
thorax -10.1962 1.88401 -2.58034
lowerneck -0.0957556 -4.47557 -9.93495
upperneck 6.4231 -6.4444 9.57987
head 2.54308 -3.23872 4.34114
rclavicle 1.86345e-014 -3.70236e-015
rhumerus -20.4491 -4.57327 -84.3579
rradius 55.3609
rwrist 3.75613
rhand -5.67064 63.4844
rfingers 7.12502
rthumb 20.1489 34.5093
lclavicle 1.86345e-014 -3.70236e-015
lhumerus -47.6814 11.2632 86.0086
lradius 59.3766
lwrist -52.9091
lhand -54.8759 14.8176
lfingers 7.12502
lthumb -27.2614 402.867
rfemur -28.6886 -2.78614 15.1427
rtibia 44.2071
rfoot -21.1145 -6.16826
rtoes 1.56887
lfemur -3.68797 -12.9194 -31.7133
ltibia 42.4159
lfoot -27.5095 9.51736
ltoes -16.7567
229
root 13.7329 15.4492 -0.713308 -11.5662 -82.292 11.0868
lowerback 10.6641 3.07592 0.774437
upperback -3.92887 4.13262 -1.05322
thorax -10.0767 1.89353 -2.35422
lowerneck -0.551418 -3.68678 -9.28326
upperneck 6.60377 -5.36888 9.56145
head 2.54528 -2.67917 4.26053
rclavicle 1.31633e-014 -1.49089e-015
rhumerus -21.0422 -3.69347 -86.3142
rradius 55.2909
rwrist 4.87223
rhand -4.78576 63.9985
rfingers 7.12502
rthumb 20.9992 35.1154
lclavicle 1.31633e-014 -1.49089e-015
lhumerus -47.6025 12.6569 84.627
lradius 57.4146
lwrist -52.8665
lhand -54.0001 21.0465
lfingers 7.12502
lthumb -26.4234 409.225
rfemur -27.8912 -2.43663 16.6429
rtibia 43.4036
rfoot -20.5628 -5.54749
rtoes 0.112943
lfemur -3.89625 -12.3284 -31.0909
ltibia 44.3611
lfoot -26.3879 10.9811
ltoes -18.2132
230
root 13.5098 15.4899 -0.759443 -6.55648 -84.4439 6.05786
lowerback 10.4687 3.02295 0.830708
upperback -3.94015 4.09872 -0.744571
thorax -9.99438 1.88755 -2.03662
lowerneck -1.10068 -2.8261 -8.98039
upperneck 6.90534 -4.21498 9.8415
head 2.61151 -2.07824 4.33015
rclavicle -3.05942e-014 1.88845e-015
rhumerus -21.6268 -2.88536 -88.1455
rradius 54.9464
rwrist 6.11119
rhand -4.53258 64.4129
rfingers 7.12502
rthumb 21.2425 35.5569
lclavicle -3.05942e-014 1.88845e-015
lhumerus -47.6668 14.1651 83.1044
lradius 55.5203
lwrist -52.4313
lhand -52.853 26.646
lfingers 7.12502
lthumb -25.3249 414.985
rfemur -26.8985 -2.39121 18.2236
rtibia 42.4813
rfoot -20.2104 -5.22153
rtoes -2.82063
lfemur -4.74791 -11.1733 -30.1668
ltibia 47.3108
lfoot -24.3046 11.9348
ltoes -19.0456
231
root 13.298 15.5031 -0.802649 6.41853 -86.3607 -7.11354
lowerback 10.6018 2.90276 1.19516
upperback -3.90088 4.02615 -0.395143
thorax -10.0329 1.84193 -1.85984
lowerneck -1.68652 -1.97974 -8.84628
upperneck 7.27432 -3.08616 10.1971
head 2.70998 -1.48926 4.45228
rclavicle -3.61415e-014 -3.37934e-015
rhumerus -22.2606 -1.84306 -89.8422
rradius 54.5245
rwrist 6.95676
rhand -4.48453 64.7411
rfingers 7.12502
rthumb 21.2886 35.8903
lclavicle -3.61415e-014 -3.37934e-015
lhumerus -47.8833 15.6493 81.5139
lradius 53.8253
lwrist -51.7071
lhand -51.6964 28.716
lfingers 7.12502
lthumb -24.2164 417.207
rfemur -25.6804 -2.88215 19.872
rtibia 41.5203
rfoot -20.1741 -4.14859
rtoes -5.14258
lfemur -6.23066 -9.02496 -28.7793
ltibia 51.3564
lfoot -21.4868 11.8939
ltoes -19.0838
232
root 13.0915 15.4957 -0.850339 49.0216 -87.7158 -50.1333
lowerback 11.0271 2.86261 1.79697
upperback -3.7381 4.11185 0.0603268
thorax -10.0942 1.86067 -1.74466
lowerneck -2.49856 -1.23237 -8.49674
upperneck 7.73741 -2.07106 10.2577
head 2.87915 -0.951146 4.4454
rclavicle 1.93567e-014 -1.2921e-015
rhumerus -22.8437 -0.627856 -91.2795
rradius 54.0816
rwrist 7.45759
rhand -4.02272 65.3059
rfingers 7.12502
rthumb 21.7321 36.5058
lclavicle 1.93567e-014 -1.2921e-015
lhumerus -48.0406 17.4208 79.6398
lradius 52.0942
lwrist -51.1078
lhand -50.4232 29.8258
lfingers 7.12502
lthumb -22.9952 418.474
rfemur -24.1996 -3.76056 21.7655
rtibia 40.5609
rfoot -20.0482 -1.44175
rtoes -4.74832
lfemur -8.37998 -6.21522 -27.0075
ltibia 56.3784
lfoot -16.9964 11.9223
ltoes -17.249
233
root 12.8905 15.4922 -0.910008 96.8707 -86.8816 -98.1296
lowerback 11.4726 2.93731 2.23837
upperback -3.78113 4.3306 0.464499
thorax -10.3985 1.94315 -1.62934
lowerneck -2.92066 -0.570341 -7.88462
upperneck 7.96056 -1.21087 10.3721
head 2.92899 -0.492667 4.40906
rclavicle -7.97623e-015 -9.54166e-015
rhumerus -23.7011 -0.0779975 -92.3754
rradius 53.5599
rwrist 8.19747
rhand -3.53174 66.1478
rfingers 7.12502
rthumb 22.2036 37.403
lclavicle -7.97623e-015 -9.54166e-015
lhumerus -48.387 18.683 77.5882
lradius 50.2998
lwrist -50.7802
lhand -49.3797 32.3321
lfingers 7.12502
lthumb -21.9936 421.102
rfemur -22.8728 -4.88048 23.6614
rtibia 39.5592
rfoot -19.9463 1.80006
rtoes -2.75638
lfemur -11.6851 -2.80113 -24.8786
ltibia 61.9879
lfoot -11.0666 11.9501
ltoes -14.3119
234
root 12.6835 15.4731 -0.96818 115.961 -84.9466 -117.258
lowerback 11.7696 3.175 2.75408
upperback -3.89595 4.77471 0.793451
thorax -10.6749 2.12409 -1.67475
lowerneck -2.89364 0.00627123 -7.11849
upperneck 7.82388 -0.495767 10.632
head 2.81476 -0.112409 4.38305
rclavicle 2.50096e-014 -1.98785e-016
rhumerus -24.6808 -0.124335 -93.1693
rradius 53.0127
rwrist 9.16584
rhand -2.92086 67.0232
rfingers 7.12502
rthumb 22.7899 38.3494
lclavicle 2.50096e-014 -1.98785e-016
lhumerus -48.8918 19.2203 75.5368
lradius 48.8056
lwrist -50.3023
lhand -48.1257 35.3035
lfingers 7.12502
lthumb -20.7892 424.21
rfemur -21.6121 -6.46022 25.6005
rtibia 38.4794
rfoot -19.833 5.21147
rtoes -2.40371
lfemur -15.1853 0.974502 -22.5921
ltibia 67.7594
lfoot -5.44973 11.7942
ltoes -10.2725
235
root 12.4748 15.4537 -1.01808 120.982 -82.4151 -122.234
lowerback 11.8547 3.38061 3.94829
upperback -3.90109 5.28086 1.20166
thorax -10.6479 2.29892 -2.00477
lowerneck -2.76677 0.51757 -6.24627
upperneck 7.37123 0.154059 10.8215
head 2.60135 0.228647 4.30878
rclavicle -1.65737e-014 -3.97569e-016
rhumerus -25.2026 0.436936 -93.761
rradius 52.3518
rwrist 9.68262
rhand -2.05966 67.6256
rfingers 7.12502
rthumb 23.6162 39.056
lclavicle -1.65737e-014 -3.97569e-016
lhumerus -49.2943 19.6582 73.4699
lradius 47.4947
lwrist -49.9178
lhand -46.8749 38.4705
lfingers 7.12502
lthumb -19.587 427.504
rfemur -20.0807 -5.41652 27.9909
rtibia 37.2111
rfoot -20.7768 4.63273
rtoes -8.8798
lfemur -18.6941 4.91299 -19.6999
ltibia 73.2623
lfoot -0.309688 11.5862
ltoes -5.61967
236
root 12.2597 15.4263 -1.05117 120.971 -79.9463 -122.152
lowerback 11.9176 3.44191 5.61554
upperback -3.90924 5.66507 1.61269
thorax -10.5665 2.38328 -2.56261
lowerneck -2.58349 1.0061 -5.3825
upperneck 6.92702 0.783884 10.909
head 2.38864 0.55161 4.20064
rclavicle 2.81529e-014 2.14687e-014
rhumerus -25.5628 1.40541 -94.1853
rradius 51.5274
rwrist 10.1192
rhand -1.45254 68.3318
rfingers 7.12502
rthumb 24.1984 39.8384
lclavicle 2.81529e-014 2.14687e-014
lhumerus -49.9991 20.1797 71.1997
lradius 46.4253
lwrist -49.8952
lhand -46.0512 41.6285
lfingers 7.12502
lthumb -18.7949 430.74
rfemur -18.3952 -4.28292 30.4509
rtibia 35.7954
rfoot -21.3814 4.77362
rtoes -11.2937
lfemur -22.1457 8.49631 -16.7927
ltibia 78.3627
lfoot 4.27016 11.7037
ltoes 0.962723
